<?xml version="1.0" encoding="UTF-8"?>
<svg xmlns="http://www.w3.org/2000/svg" xmlns:xlink="http://www.w3.org/1999/xlink" viewBox="0 0 48 48" width="48px" height="48px">
<g id="surface15328810">
<path style=" stroke:none;fill-rule:nonzero;fill:rgb(91.37255%,11.764706%,38.82353%);fill-opacity:1;" d="M 41.671875 13.480469 C 41.269531 13.738281 40.699219 13.980469 40.460938 14.25 C 40.371094 14.339844 40.320312 14.441406 40.339844 14.539062 L 40.339844 15.570312 L 40.039062 16.578125 L 39.738281 17.578125 L 39.410156 18.679688 L 38.730469 20.929688 L 38.070312 23.148438 L 37.570312 24.820312 C 37.570312 25.078125 37.558594 25.339844 37.539062 25.589844 C 37.46875 26.550781 37.269531 27.46875 36.949219 28.328125 C 36.761719 28.859375 36.53125 29.371094 36.25 29.851562 C 36.148438 30.039062 36.03125 30.230469 35.910156 30.410156 C 35.511719 31.039062 35.03125 31.621094 34.5 32.128906 C 34.089844 32.539062 33.640625 32.921875 33.148438 33.238281 C 33.148438 33.238281 33.148438 33.238281 33.140625 33.238281 C 33.058594 33.308594 32.96875 33.371094 32.871094 33.421875 C 32.558594 33.628906 32.230469 33.808594 31.890625 33.96875 C 31.660156 34.089844 31.429688 34.191406 31.191406 34.28125 C 31.140625 34.308594 31.078125 34.328125 31.03125 34.351562 C 30.460938 34.621094 29.800781 34.800781 29.140625 34.890625 C 29.101562 34.898438 29.070312 34.898438 29.03125 34.910156 C 28.628906 34.980469 28.238281 35.039062 27.839844 35.070312 C 27.660156 35.089844 27.46875 35.101562 27.289062 35.101562 L 26.578125 35.058594 L 23.160156 34.878906 C 23.160156 34.871094 23.148438 34.878906 23.148438 34.878906 L 21.429688 34.789062 C 21.300781 34.789062 21.160156 34.789062 21.03125 34.78125 C 20.488281 34.761719 19.96875 34.699219 19.449219 34.589844 C 19.441406 34.589844 19.441406 34.589844 19.441406 34.589844 C 18.488281 34.410156 17.578125 34.089844 16.730469 33.660156 C 16.261719 33.421875 15.800781 33.148438 15.371094 32.839844 C 15.191406 32.710938 15.019531 32.570312 14.851562 32.421875 C 14.371094 32.019531 13.941406 31.589844 13.539062 31.148438 C 13.480469 31.089844 13.429688 31.03125 13.378906 30.96875 C 13.320312 30.910156 13.261719 30.839844 13.210938 30.78125 C 12.828125 30.300781 12.511719 29.808594 12.25 29.289062 C 12.011719 28.828125 11.820312 28.339844 11.671875 27.800781 C 11.609375 27.609375 11.558594 27.429688 11.519531 27.230469 C 11.511719 27.21875 11.5 27.199219 11.5 27.179688 C 11.398438 26.769531 11.308594 26.339844 11.261719 25.910156 C 11.199219 25.578125 11.171875 25.25 11.171875 24.910156 C 11.148438 24.78125 11.148438 24.640625 11.148438 24.511719 L 13.058594 21.558594 L 14.929688 18.679688 L 15.78125 17.371094 L 16.550781 16.191406 L 16.808594 15.78125 L 16.808594 14.75 C 16.828125 14.519531 16.839844 14.28125 16.828125 14.058594 C 16.820312 13.359375 16.679688 12.679688 16.449219 12.03125 C 16.230469 11.339844 15.921875 10.691406 15.601562 10.089844 C 15.21875 9.398438 14.820312 8.78125 14.488281 8.21875 C 14 7.398438 13.660156 6.730469 13.75 6.261719 C 14.46875 6.089844 15.230469 6 16 6 L 32 6 C 36.179688 6 39.78125 8.601562 41.269531 12.261719 C 41.429688 12.648438 41.570312 13.058594 41.671875 13.480469 Z M 41.671875 13.480469 "/>
<path style=" stroke:none;fill-rule:nonzero;fill:rgb(91.37255%,11.764706%,38.82353%);fill-opacity:1;" d="M 42 16 L 42 16.269531 L 40.621094 17.070312 L 39.738281 17.578125 L 38.769531 18.140625 L 36.828125 19.269531 L 34.929688 20.371094 L 32.988281 21.488281 L 32.21875 21.941406 C 32.21875 22.421875 32.101562 22.859375 31.878906 23.261719 C 31.570312 23.839844 31.050781 24.320312 30.390625 24.730469 C 29.71875 25.140625 28.898438 25.46875 27.980469 25.710938 C 27.980469 25.710938 27.980469 25.699219 27.96875 25.710938 C 24.410156 26.628906 19.550781 26.210938 17.191406 24.449219 C 16.53125 23.960938 16.070312 23.359375 15.871094 22.671875 C 15.808594 22.441406 15.78125 22.191406 15.78125 21.941406 L 15.78125 14.75 C 15.789062 14.601562 15.691406 14.449219 15.511719 14.300781 C 14.96875 13.871094 13.699219 13.460938 12.28125 13.050781 C 11.171875 12.738281 9.980469 12.429688 8.980469 12.128906 C 8.191406 11.890625 7.519531 11.648438 7.121094 11.421875 C 7.300781 11.070312 7.511719 10.71875 7.730469 10.390625 C 9.128906 8.339844 11.269531 6.828125 13.75 6.261719 C 14.46875 6.089844 15.230469 6 16 6 L 26.800781 6 C 32.171875 6.941406 37.121094 9.128906 41.269531 12.261719 C 41.429688 12.648438 41.570312 13.058594 41.671875 13.480469 C 41.851562 14.140625 41.960938 14.820312 41.988281 15.53125 C 42 15.679688 42 15.839844 42 16 Z M 42 16 "/>
<path style=" stroke:none;fill-rule:nonzero;fill:rgb(91.37255%,11.764706%,38.82353%);fill-opacity:1;" d="M 42 16 L 42 20.410156 L 41.78125 21.089844 L 41.03125 23.421875 L 40.25 25.820312 L 39.839844 27.101562 L 39.460938 28.289062 L 39.089844 29.421875 L 38.730469 30.539062 L 38.539062 31.128906 L 38.289062 31.910156 C 38.289062 32.671875 38.269531 33.339844 38.21875 33.910156 C 38.210938 33.96875 38.199219 34.03125 38.199219 34.089844 C 38.140625 34.621094 38.058594 35.070312 37.929688 35.449219 C 37.921875 35.511719 37.898438 35.570312 37.878906 35.621094 C 37.621094 36.339844 37.230469 36.800781 36.648438 37.101562 C 36.511719 37.179688 36.351562 37.238281 36.179688 37.300781 C 35.648438 37.480469 34.980469 37.570312 34.160156 37.621094 C 33.558594 37.660156 32.871094 37.671875 32.089844 37.671875 L 31.398438 37.671875 L 30.210938 37.621094 L 30 37.609375 L 27.828125 37.519531 L 25.628906 37.429688 L 18.378906 37.128906 L 16.5 37.050781 L 16.238281 37.050781 C 15.460938 37.039062 14.789062 36.988281 14.210938 36.910156 C 13.371094 36.78125 12.71875 36.558594 12.230469 36.230469 C 11.53125 35.78125 11.121094 35.121094 10.878906 34.199219 C 10.820312 33.980469 10.769531 33.75 10.738281 33.5 C 10.640625 32.921875 10.589844 32.25 10.558594 31.5 C 10.558594 31.351562 10.558594 31.199219 10.550781 31.039062 C 10.539062 31.03125 10.550781 31.03125 10.550781 31.03125 L 10.550781 30.449219 C 10.539062 30.160156 10.539062 29.859375 10.539062 29.550781 L 10.589844 27.941406 L 10.621094 26.789062 L 10.660156 25.449219 L 10.660156 25.261719 L 10.800781 20.339844 L 10.871094 18.03125 L 10.929688 15.761719 L 10.949219 15.160156 C 10.949219 14.851562 9.898438 14.671875 8.730469 14.519531 C 7.800781 14.398438 6.78125 14.289062 6.171875 14.148438 C 6.21875 13.921875 6.269531 13.691406 6.328125 13.46875 C 6.511719 12.75 6.78125 12.070312 7.121094 11.421875 C 7.300781 11.070312 7.511719 10.71875 7.730469 10.390625 C 9.890625 9.441406 12.140625 8.699219 14.488281 8.21875 C 16.550781 7.789062 18.699219 7.558594 20.921875 7.558594 C 28.28125 7.558594 35.078125 10.050781 40.460938 14.25 C 40.980469 14.648438 41.488281 15.078125 41.988281 15.53125 C 42 15.679688 42 15.839844 42 16 Z M 42 16 "/>
<path style=" stroke:none;fill-rule:nonzero;fill:rgb(91.37255%,11.764706%,38.82353%);fill-opacity:1;" d="M 42 18.371094 L 42 22.910156 L 41.449219 23.96875 L 40.398438 26.019531 L 39.839844 27.101562 L 39.328125 28.089844 L 39.109375 28.519531 C 39.109375 28.828125 39.109375 29.128906 39.089844 29.421875 C 39.089844 29.851562 39.070312 30.261719 39.039062 30.640625 C 39 31.089844 38.941406 31.5 38.878906 31.878906 C 38.730469 32.671875 38.519531 33.351562 38.21875 33.910156 C 38.179688 33.980469 38.140625 34.050781 38.101562 34.109375 C 37.988281 34.289062 37.859375 34.460938 37.71875 34.621094 C 37.539062 34.839844 37.339844 35.03125 37.109375 35.191406 C 36.769531 35.449219 36.371094 35.660156 35.910156 35.820312 C 35.339844 36.03125 34.679688 36.171875 33.898438 36.25 C 33.390625 36.300781 32.828125 36.328125 32.21875 36.328125 L 31.800781 36.351562 L 29.71875 36.46875 L 29.710938 36.46875 L 27.5 36.601562 L 25.25 36.730469 L 22.148438 36.910156 L 18.378906 37.128906 L 17.828125 37.160156 C 17.320312 37.160156 16.839844 37.128906 16.378906 37.070312 C 16.328125 37.058594 16.289062 37.050781 16.238281 37.050781 C 15.558594 36.941406 14.941406 36.761719 14.378906 36.511719 C 13.699219 36.210938 13.109375 35.808594 12.609375 35.328125 C 12.171875 34.898438 11.789062 34.410156 11.480469 33.859375 C 11.410156 33.730469 11.339844 33.609375 11.28125 33.46875 C 10.980469 32.878906 10.738281 32.21875 10.558594 31.5 C 10.53125 31.378906 10.5 31.25 10.480469 31.121094 C 10.421875 30.890625 10.371094 30.648438 10.339844 30.398438 C 10.230469 29.761719 10.171875 29.078125 10.140625 28.371094 L 10.140625 28.359375 C 10.128906 28.070312 10.121094 27.789062 10.121094 27.488281 L 9.628906 26.320312 L 9.558594 26.140625 L 9.5 25.988281 L 8.75 24.199219 L 8.628906 23.910156 L 7.910156 22.179688 L 7.109375 20.25 C 7.109375 20.25 7.109375 20.25 7.101562 20.25 L 6.289062 18.300781 L 6 17.589844 L 6 16 C 6 15.371094 6.058594 14.75 6.171875 14.148438 C 6.21875 13.921875 6.269531 13.691406 6.328125 13.46875 C 7.179688 12.980469 8.070312 12.53125 8.980469 12.128906 C 11.058594 11.199219 13.289062 10.511719 15.601562 10.089844 C 17.320312 9.78125 19.109375 9.609375 20.921875 9.609375 C 28.230469 9.609375 34.859375 12.261719 40.039062 16.578125 C 40.238281 16.738281 40.429688 16.898438 40.621094 17.070312 C 41.089844 17.480469 41.550781 17.910156 42 18.371094 Z M 42 18.371094 "/>
<path style=" stroke:none;fill-rule:nonzero;fill:rgb(91.37255%,11.764706%,38.82353%);fill-opacity:1;" d="M 42 21.351562 L 42 26.488281 L 41.429688 27.679688 L 40.351562 29.929688 L 40.339844 29.960938 C 40.339844 30.390625 40.320312 30.78125 40.289062 31.128906 C 40.191406 32.28125 39.910156 33.011719 39.449219 33.460938 C 39.121094 33.800781 38.710938 33.988281 38.199219 34.089844 C 38.171875 34.101562 38.128906 34.101562 38.101562 34.109375 C 37.941406 34.140625 37.769531 34.160156 37.589844 34.160156 C 36.96875 34.21875 36.238281 34.179688 35.398438 34.121094 C 35.308594 34.121094 35.210938 34.109375 35.109375 34.101562 C 34.5 34.058594 33.851562 34.019531 33.128906 33.988281 C 32.738281 33.980469 32.328125 33.96875 31.910156 33.96875 L 31.890625 33.96875 L 30.878906 34.050781 L 30.871094 34.050781 L 28.601562 34.210938 L 26.011719 34.410156 L 25.628906 34.441406 L 22.601562 34.660156 L 21.03125 34.78125 L 19.480469 34.890625 C 19.210938 34.890625 18.949219 34.890625 18.691406 34.878906 C 18.691406 34.878906 18.679688 34.871094 18.679688 34.878906 C 17.550781 34.859375 16.539062 34.789062 15.640625 34.621094 C 14.808594 34.480469 14.078125 34.261719 13.460938 33.929688 C 12.820312 33.621094 12.289062 33.179688 11.859375 32.621094 C 11.449219 32.070312 11.148438 31.378906 10.960938 30.550781 C 10.960938 30.539062 10.960938 30.539062 10.960938 30.539062 C 10.820312 29.871094 10.738281 29.089844 10.738281 28.210938 L 10.589844 27.941406 L 9.699219 26.351562 L 9.570312 26.128906 L 9.5 25.988281 L 8.570312 24.339844 L 8.109375 23.511719 L 7.53125 22.480469 L 6.53125 20.691406 L 6 19.75 L 6 16.070312 C 6.878906 15.488281 7.789062 14.980469 8.730469 14.519531 C 9.871094 13.941406 11.050781 13.449219 12.28125 13.050781 C 13.621094 12.609375 15.019531 12.261719 16.449219 12.03125 C 17.898438 11.789062 19.390625 11.671875 20.921875 11.671875 C 27.71875 11.671875 33.960938 14.101562 38.769531 18.140625 C 38.988281 18.308594 39.199219 18.5 39.410156 18.679688 C 40.25 19.429688 41.050781 20.238281 41.78125 21.089844 C 41.859375 21.179688 41.941406 21.261719 42 21.351562 Z M 42 21.351562 "/>
<path style=" stroke:none;fill-rule:nonzero;fill:rgb(91.37255%,11.764706%,38.82353%);fill-opacity:1;" d="M 42 24.710938 L 42 31.941406 C 41.761719 31.800781 41.429688 31.628906 41.019531 31.449219 C 40.800781 31.339844 40.550781 31.230469 40.289062 31.128906 C 39.910156 30.960938 39.5 30.800781 39.039062 30.640625 C 38.941406 30.601562 38.839844 30.570312 38.730469 30.539062 C 38.550781 30.46875 38.359375 30.410156 38.171875 30.351562 C 37.578125 30.171875 36.929688 30 36.25 29.851562 C 35.988281 29.800781 35.71875 29.75 35.449219 29.710938 C 34.578125 29.558594 33.648438 29.46875 32.679688 29.460938 C 32.601562 29.449219 32.511719 29.449219 32.429688 29.449219 L 29.859375 29.46875 L 26.359375 29.488281 L 26.351562 29.488281 L 18.859375 29.550781 C 16.480469 29.550781 15.019531 30.121094 14.140625 30.351562 C 14.140625 30.351562 14.128906 30.351562 14.128906 30.359375 C 13.199219 30.601562 12.910156 30.449219 12.828125 28.820312 C 12.808594 28.371094 12.800781 27.789062 12.800781 27.078125 L 12.238281 26.648438 L 11.261719 25.910156 L 10.660156 25.449219 L 10.539062 25.359375 L 8.878906 24.101562 L 8.628906 23.910156 L 8.109375 23.511719 L 7.148438 22.789062 L 6 21.910156 L 6 18.511719 C 6.101562 18.429688 6.191406 18.359375 6.289062 18.300781 C 7.738281 17.300781 9.289062 16.449219 10.929688 15.761719 C 12.390625 15.140625 13.929688 14.648438 15.511719 14.300781 C 15.941406 14.210938 16.378906 14.121094 16.828125 14.058594 C 18.160156 13.828125 19.53125 13.71875 20.921875 13.71875 C 26.929688 13.71875 32.449219 15.808594 36.828125 19.269531 C 37.488281 19.789062 38.128906 20.339844 38.730469 20.929688 C 39.550781 21.710938 40.320312 22.539062 41.03125 23.421875 C 41.171875 23.601562 41.308594 23.78125 41.449219 23.96875 C 41.640625 24.210938 41.820312 24.460938 42 24.710938 Z M 42 24.710938 "/>
<path style=" stroke:none;fill-rule:nonzero;fill:rgb(91.37255%,11.764706%,38.82353%);fill-opacity:1;" d="M 42 28.71875 L 42 32 C 42 32.648438 41.941406 33.289062 41.820312 33.910156 C 41.640625 34.828125 41.328125 35.710938 40.910156 36.53125 C 40.691406 36.578125 40.441406 36.578125 40.160156 36.539062 C 39.53125 36.429688 38.789062 36.101562 37.988281 35.671875 C 37.949219 35.660156 37.910156 35.640625 37.878906 35.621094 C 37.628906 35.488281 37.371094 35.351562 37.109375 35.191406 C 36.578125 34.898438 36.019531 34.578125 35.460938 34.28125 C 35.339844 34.21875 35.21875 34.160156 35.109375 34.101562 C 34.46875 33.769531 33.808594 33.46875 33.148438 33.238281 C 33.148438 33.238281 33.148438 33.238281 33.140625 33.238281 C 33 33.191406 32.851562 33.140625 32.699219 33.101562 C 32.128906 32.941406 31.550781 32.839844 30.988281 32.839844 L 29.890625 32.519531 L 25.019531 31.109375 C 25.019531 31.109375 25.019531 31.109375 25.011719 31.109375 L 22.019531 30.238281 L 22.011719 30.238281 L 20.710938 29.859375 C 16.949219 29.859375 14.640625 31.460938 13.519531 30.851562 C 13.078125 30.621094 12.820312 30.039062 12.730469 28.898438 C 12.699219 28.578125 12.691406 28.21875 12.691406 27.800781 L 11.519531 27.230469 L 11.46875 27.210938 L 11.460938 27.210938 L 10.621094 26.789062 L 9.699219 26.351562 L 9.628906 26.320312 L 9.460938 26.230469 L 7.5 25.28125 L 6 24.550781 L 6 21.121094 C 6.171875 20.96875 6.351562 20.828125 6.53125 20.691406 C 6.71875 20.539062 6.910156 20.398438 7.101562 20.25 C 7.109375 20.25 7.109375 20.25 7.109375 20.25 C 8.289062 19.398438 9.539062 18.648438 10.871094 18.03125 C 12.421875 17.289062 14.070312 16.71875 15.78125 16.351562 C 16.03125 16.289062 16.289062 16.230469 16.550781 16.191406 C 17.96875 15.921875 19.429688 15.78125 20.921875 15.78125 C 26.191406 15.78125 31.03125 17.488281 34.929688 20.371094 C 36.058594 21.210938 37.109375 22.140625 38.070312 23.148438 C 38.859375 23.980469 39.589844 24.878906 40.25 25.820312 C 40.300781 25.890625 40.351562 25.960938 40.398438 26.019531 C 40.769531 26.558594 41.109375 27.109375 41.429688 27.679688 C 41.640625 28.019531 41.820312 28.371094 42 28.71875 Z M 42 28.71875 "/>
<path style=" stroke:none;fill-rule:nonzero;fill:rgb(91.37255%,11.764706%,38.82353%);fill-opacity:1;" d="M 41.820312 33.910156 C 41.640625 34.828125 41.328125 35.710938 40.910156 36.53125 C 40.71875 36.898438 40.511719 37.25 40.28125 37.589844 C 40.140625 37.800781 39.988281 38 39.839844 38.191406 C 39.480469 38.050781 38.949219 37.851562 38.300781 37.628906 C 38.300781 37.628906 38.300781 37.628906 38.300781 37.621094 C 37.808594 37.449219 37.25 37.269531 36.648438 37.101562 C 36.480469 37.050781 36.308594 37 36.128906 36.949219 C 35.421875 36.761719 34.679688 36.589844 33.960938 36.488281 C 33.359375 36.390625 32.769531 36.328125 32.21875 36.328125 L 31.761719 36.199219 L 31.75 36.199219 L 29.328125 35.5 L 27.839844 35.070312 L 26.179688 34.589844 L 26.171875 34.589844 L 25.628906 34.441406 L 19.101562 32.558594 L 17.21875 32.019531 L 15.820312 31.691406 L 13.539062 31.148438 L 13.261719 31.078125 C 13.261719 31.078125 13.261719 31.078125 13.25 31.078125 L 10.960938 30.550781 C 10.960938 30.539062 10.960938 30.539062 10.960938 30.539062 L 10.550781 30.449219 L 10.339844 30.398438 L 8.671875 30.011719 L 8.480469 29.960938 L 7.058594 28.789062 L 6 27.898438 L 6 23.820312 C 6.371094 23.460938 6.75 23.121094 7.148438 22.789062 C 7.269531 22.679688 7.398438 22.578125 7.53125 22.480469 C 7.648438 22.378906 7.78125 22.28125 7.910156 22.179688 C 8.820312 21.488281 9.78125 20.871094 10.800781 20.339844 C 12.101562 19.640625 13.480469 19.078125 14.929688 18.679688 C 15.210938 18.589844 15.488281 18.511719 15.78125 18.449219 C 17.421875 18.039062 19.140625 17.828125 20.921875 17.828125 C 25.390625 17.828125 29.550781 19.179688 32.988281 21.488281 C 34.699219 22.640625 36.238281 24.019531 37.539062 25.589844 C 38.199219 26.378906 38.800781 27.210938 39.328125 28.089844 C 39.378906 28.160156 39.421875 28.21875 39.460938 28.289062 C 39.78125 28.820312 40.078125 29.371094 40.351562 29.929688 C 40.601562 30.429688 40.820312 30.929688 41.019531 31.449219 C 41.339844 32.25 41.601562 33.070312 41.820312 33.910156 Z M 41.820312 33.910156 "/>
<path style=" stroke:none;fill-rule:nonzero;fill:rgb(91.37255%,11.764706%,38.82353%);fill-opacity:1;" d="M 40.28125 37.589844 C 40.140625 37.800781 39.988281 38 39.839844 38.191406 C 39.398438 38.738281 38.921875 39.238281 38.378906 39.679688 C 37.910156 40.070312 37.410156 40.421875 36.878906 40.71875 C 36.679688 40.671875 36.480469 40.609375 36.269531 40.53125 C 35.609375 40.300781 34.921875 39.921875 34.28125 39.519531 C 33.320312 38.910156 32.488281 38.25 32.121094 37.949219 C 31.980469 37.828125 31.910156 37.769531 31.910156 37.769531 L 30.210938 37.621094 L 30 37.601562 L 27.800781 37.410156 L 25.519531 37.210938 L 22.148438 36.910156 L 16.808594 36.441406 L 16.789062 36.429688 L 14.910156 35.519531 L 13.011719 34.601562 L 11.480469 33.859375 L 11.148438 33.699219 L 10.738281 33.5 L 9.320312 32.808594 L 7.429688 31.898438 L 6.839844 31.609375 L 6 31.351562 L 6 26.878906 C 6.46875 26.320312 6.96875 25.789062 7.5 25.28125 C 7.839844 24.960938 8.199219 24.640625 8.570312 24.339844 C 8.628906 24.289062 8.691406 24.238281 8.75 24.199219 C 8.789062 24.148438 8.839844 24.121094 8.878906 24.101562 C 9.46875 23.621094 10.089844 23.191406 10.730469 22.800781 C 11.46875 22.328125 12.25 21.910156 13.058594 21.558594 C 13.929688 21.171875 14.839844 20.839844 15.78125 20.589844 C 17.410156 20.128906 19.140625 19.890625 20.921875 19.890625 C 25 19.890625 28.769531 21.128906 31.878906 23.261719 C 33.871094 24.621094 35.589844 26.339844 36.949219 28.328125 C 37.398438 28.96875 37.800781 29.648438 38.171875 30.351562 C 38.300781 30.609375 38.429688 30.871094 38.539062 31.128906 C 38.660156 31.378906 38.769531 31.628906 38.878906 31.878906 C 39.089844 32.398438 39.28125 32.921875 39.449219 33.460938 C 39.769531 34.460938 40.011719 35.480469 40.160156 36.539062 C 40.210938 36.890625 40.25 37.238281 40.28125 37.589844 Z M 40.28125 37.589844 "/>
<path style=" stroke:none;fill-rule:nonzero;fill:rgb(91.37255%,11.764706%,38.82353%);fill-opacity:1;" d="M 38.390625 39.421875 C 38.390625 39.5 38.390625 39.589844 38.378906 39.679688 C 37.910156 40.070312 37.410156 40.421875 36.878906 40.71875 C 36.660156 40.839844 36.441406 40.960938 36.210938 41.058594 C 35.980469 41.171875 35.75 41.269531 35.511719 41.359375 C 35.171875 41.179688 34.710938 40.960938 34.21875 40.75 C 33.53125 40.441406 32.78125 40.160156 32.199219 40.070312 C 32.058594 40.039062 31.929688 40.03125 31.808594 40.03125 L 30.171875 39.820312 L 30.148438 39.820312 L 28.109375 39.550781 L 26.050781 39.28125 L 25.089844 39.160156 L 17.53125 38.179688 C 17.039062 38.179688 16.519531 38.148438 15.980469 38.078125 C 15.320312 38.019531 14.628906 37.921875 13.941406 37.78125 C 13.261719 37.660156 12.570312 37.5 11.910156 37.328125 C 11.21875 37.171875 10.539062 36.980469 9.910156 36.800781 C 9.179688 36.578125 8.5 36.371094 7.929688 36.179688 C 7.460938 36.03125 7.058594 35.890625 6.75 35.78125 C 6.570312 35.351562 6.421875 34.898438 6.308594 34.441406 C 6.101562 33.660156 6 32.839844 6 32 L 6 30.328125 C 6.320312 29.800781 6.671875 29.28125 7.058594 28.789062 C 7.769531 27.851562 8.578125 26.988281 9.460938 26.230469 C 9.488281 26.191406 9.53125 26.160156 9.558594 26.140625 L 9.570312 26.128906 C 9.878906 25.851562 10.199219 25.601562 10.539062 25.359375 C 10.578125 25.320312 10.621094 25.289062 10.660156 25.261719 C 10.820312 25.140625 10.988281 25.019531 11.171875 24.910156 C 12.601562 23.941406 14.179688 23.179688 15.871094 22.671875 C 17.46875 22.191406 19.160156 21.941406 20.921875 21.941406 C 24.410156 21.941406 27.671875 22.96875 30.390625 24.730469 C 32.398438 26.019531 34.128906 27.71875 35.449219 29.710938 C 35.609375 29.941406 35.761719 30.171875 35.910156 30.410156 C 36.601562 31.578125 37.171875 32.839844 37.589844 34.160156 C 37.640625 34.308594 37.679688 34.460938 37.71875 34.621094 C 37.800781 34.890625 37.871094 35.171875 37.929688 35.449219 C 37.949219 35.519531 37.96875 35.589844 37.988281 35.671875 C 38.128906 36.300781 38.230469 36.960938 38.300781 37.621094 C 38.300781 37.628906 38.300781 37.628906 38.300781 37.628906 C 38.359375 38.21875 38.390625 38.820312 38.390625 39.421875 Z M 38.390625 39.421875 "/>
<path style=" stroke:none;fill-rule:nonzero;fill:rgb(91.37255%,11.764706%,38.82353%);fill-opacity:1;" d="M 36.328125 39.421875 C 36.328125 39.769531 36.308594 40.148438 36.269531 40.53125 C 36.25 40.710938 36.230469 40.890625 36.210938 41.058594 C 35.980469 41.171875 35.75 41.269531 35.511719 41.359375 C 35.058594 41.53125 34.601562 41.671875 34.128906 41.769531 C 33.808594 41.839844 33.480469 41.898438 33.148438 41.929688 L 33.140625 41.929688 C 32.828125 41.738281 32.46875 41.511719 32.101562 41.25 C 31.429688 40.78125 30.730469 40.25 30.171875 39.820312 C 30.160156 39.808594 30.160156 39.808594 30.148438 39.800781 C 29.558594 39.351562 29.140625 39.011719 29.140625 39.011719 L 28.078125 39.050781 L 26.039062 39.121094 L 25.089844 39.160156 L 21.269531 39.300781 L 18.039062 39.421875 C 17.828125 39.429688 17.578125 39.429688 17.269531 39.421875 L 17.261719 39.421875 C 16.839844 39.410156 16.339844 39.378906 15.789062 39.328125 C 15.148438 39.28125 14.449219 39.21875 13.738281 39.148438 C 13.050781 39.070312 12.351562 38.988281 11.679688 38.910156 C 10.941406 38.828125 10.238281 38.738281 9.640625 38.660156 C 9.171875 38.601562 8.761719 38.550781 8.429688 38.511719 C 8.148438 38.191406 7.898438 37.859375 7.660156 37.5 C 7.300781 36.960938 6.988281 36.390625 6.75 35.78125 C 6.570312 35.351562 6.421875 34.898438 6.308594 34.441406 C 6.601562 33.550781 6.980469 32.710938 7.429688 31.898438 C 7.789062 31.238281 8.210938 30.609375 8.671875 30.011719 C 9.121094 29.421875 9.609375 28.871094 10.140625 28.371094 L 10.140625 28.359375 C 10.289062 28.210938 10.441406 28.070312 10.589844 27.941406 C 10.871094 27.679688 11.160156 27.441406 11.460938 27.210938 L 11.46875 27.210938 C 11.480469 27.191406 11.488281 27.191406 11.5 27.179688 C 11.738281 26.988281 11.988281 26.820312 12.238281 26.648438 C 13.71875 25.640625 15.390625 24.890625 17.191406 24.449219 C 18.378906 24.160156 19.628906 24 20.921875 24 C 23.460938 24 25.859375 24.609375 27.96875 25.710938 L 27.980469 25.710938 C 29.789062 26.640625 31.390625 27.921875 32.679688 29.460938 C 33.390625 30.28125 34 31.179688 34.5 32.128906 C 34.851562 32.769531 35.148438 33.441406 35.398438 34.121094 C 35.421875 34.179688 35.441406 34.230469 35.460938 34.28125 C 35.628906 34.78125 35.78125 35.300781 35.910156 35.820312 C 36 36.191406 36.070312 36.570312 36.128906 36.949219 C 36.148438 37.070312 36.171875 37.179688 36.179688 37.300781 C 36.28125 37.988281 36.328125 38.699219 36.328125 39.421875 Z M 36.328125 39.421875 "/>
<path style=" stroke:none;fill-rule:nonzero;fill:rgb(91.37255%,11.764706%,38.82353%);fill-opacity:1;" d="M 34.28125 39.421875 L 34.28125 39.519531 C 34.28125 39.859375 34.25 40.289062 34.21875 40.75 C 34.191406 41.089844 34.160156 41.441406 34.128906 41.769531 C 33.808594 41.839844 33.480469 41.898438 33.148438 41.929688 L 33.140625 41.929688 C 32.761719 41.980469 32.390625 42 32 42 L 30.25 42 L 29.871094 41.890625 L 27.898438 41.289062 L 25.898438 40.691406 L 21.269531 39.300781 L 19.269531 38.699219 C 19.269531 38.699219 18.441406 39.03125 17.269531 39.421875 L 17.261719 39.421875 C 16.808594 39.570312 16.320312 39.730469 15.800781 39.890625 C 15.148438 40.078125 14.460938 40.269531 13.78125 40.421875 C 13.078125 40.578125 12.390625 40.699219 11.769531 40.75 C 11.578125 40.769531 11.390625 40.78125 11.21875 40.78125 C 10.660156 40.46875 10.121094 40.101562 9.628906 39.691406 C 9.199219 39.328125 8.800781 38.941406 8.429688 38.511719 C 8.148438 38.191406 7.898438 37.859375 7.660156 37.5 C 7.730469 37.050781 7.808594 36.609375 7.929688 36.179688 C 8.230469 34.988281 8.699219 33.851562 9.320312 32.808594 C 9.660156 32.21875 10.039062 31.648438 10.480469 31.121094 C 10.488281 31.089844 10.519531 31.058594 10.550781 31.039062 C 10.539062 31.03125 10.550781 31.03125 10.550781 31.03125 C 10.679688 30.859375 10.820312 30.699219 10.960938 30.550781 C 10.960938 30.539062 10.960938 30.539062 10.960938 30.539062 C 11.371094 30.101562 11.789062 29.679688 12.25 29.289062 C 12.410156 29.160156 12.558594 29.03125 12.730469 28.898438 C 12.761719 28.871094 12.789062 28.851562 12.828125 28.820312 C 15.078125 27.101562 17.890625 26.058594 20.921875 26.058594 C 24.359375 26.058594 27.488281 27.351562 29.859375 29.46875 C 31 30.5 31.96875 31.730469 32.699219 33.101562 C 32.761719 33.199219 32.820312 33.308594 32.871094 33.421875 C 32.960938 33.601562 33.050781 33.789062 33.128906 33.988281 C 33.460938 34.710938 33.71875 35.46875 33.898438 36.25 C 33.921875 36.328125 33.941406 36.410156 33.960938 36.488281 C 34.039062 36.859375 34.109375 37.238281 34.160156 37.621094 C 34.238281 38.210938 34.28125 38.808594 34.28125 39.421875 Z M 34.28125 39.421875 "/>
<path style=" stroke:none;fill-rule:nonzero;fill:rgb(91.37255%,11.764706%,38.82353%);fill-opacity:1;" d="M 32.21875 39.421875 C 32.21875 39.621094 32.210938 39.839844 32.199219 40.070312 C 32.179688 40.441406 32.148438 40.839844 32.101562 41.25 C 32.078125 41.5 32.039062 41.75 32 42 L 26.519531 42 L 25.460938 41.828125 L 21.320312 41.171875 L 20.730469 41.078125 L 19.378906 40.859375 C 18.789062 40.859375 17.511719 41.121094 16.160156 41.371094 C 15.449219 41.5 14.730469 41.640625 14.078125 41.730469 C 14 41.738281 13.921875 41.75 13.851562 41.761719 L 13.839844 41.761719 C 13.140625 41.609375 12.460938 41.378906 11.820312 41.078125 C 11.621094 40.988281 11.421875 40.890625 11.21875 40.78125 C 10.660156 40.46875 10.121094 40.101562 9.628906 39.691406 C 9.621094 39.570312 9.609375 39.46875 9.609375 39.421875 C 9.609375 39.160156 9.621094 38.910156 9.640625 38.660156 C 9.679688 38.019531 9.769531 37.398438 9.910156 36.800781 C 10.128906 35.890625 10.449219 35.011719 10.878906 34.199219 C 10.960938 34.03125 11.050781 33.859375 11.148438 33.699219 C 11.191406 33.621094 11.238281 33.550781 11.28125 33.46875 C 11.460938 33.179688 11.660156 32.898438 11.859375 32.621094 C 12.28125 32.070312 12.75 31.550781 13.25 31.078125 C 13.261719 31.078125 13.261719 31.078125 13.261719 31.078125 C 13.300781 31.039062 13.339844 31 13.378906 30.96875 C 13.429688 30.929688 13.46875 30.878906 13.519531 30.851562 C 13.71875 30.671875 13.921875 30.511719 14.128906 30.359375 C 14.128906 30.351562 14.140625 30.351562 14.140625 30.351562 C 16.03125 28.941406 18.371094 28.109375 20.921875 28.109375 C 22.898438 28.109375 24.738281 28.609375 26.351562 29.488281 L 26.359375 29.488281 C 27.738281 30.25 28.941406 31.28125 29.890625 32.519531 C 30.261719 33 30.589844 33.511719 30.871094 34.050781 L 30.878906 34.050781 C 30.929688 34.148438 30.980469 34.25 31.03125 34.351562 C 31.328125 34.941406 31.570312 35.558594 31.75 36.199219 L 31.761719 36.199219 C 31.769531 36.25 31.789062 36.300781 31.800781 36.351562 C 31.921875 36.78125 32.019531 37.21875 32.089844 37.671875 C 32.101562 37.761719 32.109375 37.859375 32.121094 37.949219 C 32.191406 38.429688 32.21875 38.921875 32.21875 39.421875 Z M 32.21875 39.421875 "/>
<path style=" stroke:none;fill-rule:nonzero;fill:rgb(91.37255%,11.764706%,38.82353%);fill-opacity:1;" d="M 30.171875 39.308594 C 30.171875 39.46875 30.171875 39.640625 30.148438 39.800781 L 30.148438 39.808594 C 30.148438 39.820312 30.148438 39.820312 30.148438 39.820312 C 30.128906 40.539062 30.03125 41.25 29.871094 41.890625 C 29.871094 41.929688 29.859375 41.960938 29.839844 42 L 25.171875 42 L 21.320312 41.171875 L 20.808594 41.058594 L 20.730469 41.078125 L 16.460938 41.960938 L 16.269531 42 L 16 42 C 15.359375 42 14.730469 41.941406 14.121094 41.820312 C 14.03125 41.800781 13.941406 41.78125 13.851562 41.761719 L 13.839844 41.761719 C 13.140625 41.609375 12.460938 41.378906 11.820312 41.078125 C 11.800781 40.96875 11.78125 40.859375 11.769531 40.75 C 11.699219 40.320312 11.671875 39.871094 11.671875 39.421875 C 11.671875 39.25 11.671875 39.078125 11.679688 38.910156 C 11.710938 38.371094 11.789062 37.839844 11.910156 37.328125 C 11.988281 36.949219 12.101562 36.578125 12.230469 36.230469 C 12.339844 35.921875 12.46875 35.621094 12.609375 35.328125 C 12.730469 35.078125 12.871094 34.839844 13.011719 34.601562 C 13.148438 34.371094 13.300781 34.148438 13.460938 33.929688 C 13.859375 33.378906 14.328125 32.871094 14.851562 32.421875 C 15.148438 32.160156 15.480469 31.910156 15.820312 31.691406 C 17.28125 30.730469 19.03125 30.171875 20.921875 30.171875 C 21.289062 30.171875 21.648438 30.191406 22 30.238281 L 22.019531 30.238281 C 23.089844 30.359375 24.089844 30.660156 25.011719 31.109375 C 25.019531 31.109375 25.019531 31.109375 25.019531 31.109375 C 26.46875 31.820312 27.699219 32.890625 28.601562 34.210938 C 28.75 34.429688 28.898438 34.671875 29.03125 34.910156 C 29.140625 35.101562 29.238281 35.300781 29.328125 35.5 C 29.46875 35.808594 29.601562 36.140625 29.710938 36.46875 L 29.71875 36.46875 C 29.828125 36.839844 29.929688 37.210938 30 37.601562 L 30 37.609375 C 30.109375 38.160156 30.171875 38.730469 30.171875 39.308594 Z M 30.171875 39.308594 "/>
<path style=" stroke:none;fill-rule:nonzero;fill:rgb(91.37255%,11.764706%,38.82353%);fill-opacity:1;" d="M 28.109375 39.519531 L 28.109375 39.550781 C 28.109375 40.140625 28.039062 40.71875 27.898438 41.289062 C 27.851562 41.53125 27.78125 41.769531 27.691406 42 L 23.210938 42 L 20.921875 41.371094 L 18.628906 42 L 16 42 C 15.359375 42 14.730469 41.941406 14.121094 41.820312 C 14.101562 41.789062 14.089844 41.761719 14.078125 41.730469 C 13.941406 41.300781 13.828125 40.871094 13.78125 40.421875 C 13.738281 40.128906 13.71875 39.828125 13.71875 39.519531 C 13.71875 39.398438 13.71875 39.269531 13.738281 39.148438 C 13.75 38.679688 13.820312 38.21875 13.941406 37.78125 C 14 37.480469 14.089844 37.191406 14.210938 36.910156 C 14.25 36.769531 14.308594 36.640625 14.378906 36.511719 C 14.53125 36.171875 14.710938 35.839844 14.910156 35.519531 C 15.128906 35.199219 15.371094 34.898438 15.640625 34.621094 C 15.960938 34.261719 16.320312 33.929688 16.730469 33.660156 C 17.429688 33.148438 18.230469 32.769531 19.101562 32.558594 C 19.679688 32.398438 20.289062 32.320312 20.921875 32.320312 C 22.921875 32.320312 24.710938 33.121094 26.011719 34.410156 C 26.058594 34.460938 26.121094 34.519531 26.171875 34.589844 L 26.179688 34.589844 C 26.320312 34.738281 26.449219 34.890625 26.578125 35.058594 C 26.949219 35.53125 27.261719 36.039062 27.5 36.601562 C 27.621094 36.859375 27.71875 37.128906 27.800781 37.410156 C 27.808594 37.449219 27.820312 37.480469 27.828125 37.519531 C 27.96875 38.011719 28.058594 38.519531 28.078125 39.050781 C 28.101562 39.199219 28.109375 39.359375 28.109375 39.519531 Z M 28.109375 39.519531 "/>
<path style=" stroke:none;fill-rule:nonzero;fill:rgb(91.37255%,11.764706%,38.82353%);fill-opacity:1;" d="M 26.058594 39.519531 C 26.058594 39.929688 26.011719 40.320312 25.898438 40.691406 C 25.800781 41.089844 25.648438 41.46875 25.460938 41.828125 C 25.429688 41.890625 25.359375 42 25.359375 42 L 16.480469 42 C 16.46875 41.988281 16.460938 41.96875 16.460938 41.960938 C 16.339844 41.769531 16.238281 41.578125 16.160156 41.371094 C 15.960938 40.910156 15.839844 40.410156 15.800781 39.890625 C 15.78125 39.769531 15.78125 39.640625 15.78125 39.519531 C 15.78125 39.460938 15.78125 39.390625 15.789062 39.328125 C 15.800781 38.890625 15.859375 38.46875 15.980469 38.078125 C 16.078125 37.71875 16.210938 37.390625 16.378906 37.070312 C 16.378906 37.070312 16.390625 37.058594 16.390625 37.050781 C 16.511719 36.839844 16.640625 36.628906 16.789062 36.429688 C 17.28125 35.769531 17.929688 35.230469 18.679688 34.878906 C 18.691406 34.878906 18.691406 34.878906 18.691406 34.878906 C 18.929688 34.761719 19.179688 34.660156 19.441406 34.589844 C 19.441406 34.589844 19.441406 34.589844 19.449219 34.589844 C 19.910156 34.449219 20.410156 34.378906 20.921875 34.378906 C 21.511719 34.378906 22.078125 34.46875 22.601562 34.660156 C 22.789062 34.710938 22.96875 34.789062 23.148438 34.878906 C 23.148438 34.878906 23.148438 34.878906 23.160156 34.878906 C 24.019531 35.289062 24.75 35.929688 25.25 36.730469 C 25.351562 36.878906 25.441406 37.039062 25.519531 37.210938 C 25.558594 37.28125 25.601562 37.359375 25.628906 37.429688 C 25.859375 37.949219 26 38.519531 26.039062 39.121094 C 26.050781 39.171875 26.050781 39.21875 26.050781 39.28125 C 26.058594 39.359375 26.058594 39.441406 26.058594 39.519531 Z M 26.058594 39.519531 "/>
<path style="fill:none;stroke-width:7.16667;stroke-linecap:round;stroke-linejoin:round;stroke:rgb(100%,100%,100%);stroke-opacity:1;stroke-miterlimit:10;" d="M 107.5 39.416667 L 64.5 39.416667 C 50.530599 39.416667 39.416667 50.530599 39.416667 64.5 L 39.416667 107.5 C 39.416667 121.469401 50.530599 132.583333 64.5 132.583333 L 107.5 132.583333 C 121.469401 132.583333 132.583333 121.469401 132.583333 107.5 L 132.583333 64.5 C 132.583333 50.530599 121.469401 39.416667 107.5 39.416667 Z M 107.5 39.416667 " transform="matrix(0.27907,0,0,0.27907,0,0)"/>
<path style=" stroke:none;fill-rule:nonzero;fill:rgb(100%,100%,100%);fill-opacity:1;" d="M 32 16 C 32 16.550781 31.550781 17 31 17 C 30.449219 17 30 16.550781 30 16 C 30 15.449219 30.449219 15 31 15 C 31.550781 15 32 15.449219 32 16 Z M 32 16 "/>
<path style="fill:none;stroke-width:7.16667;stroke-linecap:round;stroke-linejoin:round;stroke:rgb(100%,100%,100%);stroke-opacity:1;stroke-miterlimit:10;" d="M 30.000029 24.000023 C 30.000029 27.312526 27.312526 30.000029 24.000023 30.000029 C 20.68752 30.000029 18.000017 27.312526 18.000017 24.000023 C 18.000017 20.68752 20.68752 18.000017 24.000023 18.000017 C 27.312526 18.000017 30.000029 20.68752 30.000029 24.000023 Z M 30.000029 24.000023 " transform="matrix(0.999999,0,0,0.999999,0,0)"/>
</g>
</svg>
